<?xml version="1.0" standalone="no"?>
<!DOCTYPE svg PUBLIC "-//W3C//DTD SVG 20010904//EN"
 "http://www.w3.org/TR/2001/REC-SVG-20010904/DTD/svg10.dtd">
<svg version="1.0" xmlns="http://www.w3.org/2000/svg"
 width="220.000000pt" height="220.000000pt" viewBox="0 0 220.000000 220.000000"
 preserveAspectRatio="xMidYMid meet">
<metadata>
Created by potrace 1.11, written by Peter Selinger 2001-2013
</metadata>
<g transform="translate(0.000000,220.000000) scale(0.100000,-0.100000)"
fill="#000000" stroke="none">
<path d="M549 1706 c-98 -34 -153 -116 -153 -226 0 -158 129 -264 276 -227 42
11 118 71 118 94 0 10 -15 0 -41 -26 -60 -59 -134 -76 -207 -46 -49 21 -79 51
-106 105 -71 142 28 321 176 320 45 -1 110 -32 136 -65 26 -33 40 -27 18 7
-37 56 -147 89 -217 64z"/>
<path d="M1008 1710 c-104 -30 -177 -141 -164 -249 11 -87 48 -149 112 -187
177 -104 372 86 303 294 -33 99 -156 169 -251 142z m151 -43 c91 -61 122 -189
71 -292 -66 -131 -226 -151 -318 -40 -52 63 -68 157 -38 226 53 126 183 174
285 106z"/>
<path d="M1368 1693 c-8 -39 -1 -437 8 -440 5 -2 9 80 8 208 l-1 211 30 -48
c16 -27 39 -65 51 -84 71 -122 121 -200 127 -200 5 0 53 75 108 168 l101 167
0 -212 c0 -117 4 -213 8 -213 4 0 7 103 7 230 0 126 -3 230 -7 230 -4 0 -53
-76 -109 -170 -56 -93 -105 -170 -108 -170 -3 0 -51 76 -106 170 -55 93 -103
169 -106 170 -4 0 -8 -8 -11 -17z"/>
<path d="M456 1164 c-3 -9 -6 -73 -6 -143 0 -154 15 -208 68 -249 31 -24 45
-27 107 -27 61 0 78 4 112 27 69 46 85 94 87 261 l1 142 -32 3 c-28 3 -33 0
-40 -25 -3 -15 -7 -71 -8 -123 -3 -150 -4 -157 -27 -184 -47 -53 -141 -37
-172 29 -12 25 -16 66 -16 169 l0 136 -34 0 c-22 0 -36 -6 -40 -16z"/>
<path d="M902 1168 c-9 -9 -12 -72 -12 -220 0 -227 -3 -218 58 -202 21 6 22
10 22 141 l0 135 112 -141 c86 -108 118 -141 135 -141 13 0 23 5 23 11 0 5 5
7 10 4 6 -3 10 2 11 12 1 23 1 384 0 401 -1 19 -55 15 -67 -5 -6 -10 -10 -69
-9 -136 1 -65 -1 -120 -4 -122 -4 -2 -55 60 -116 136 -110 139 -133 157 -163
127z"/>
<path d="M1345 1163 c-7 -11 -11 -98 -10 -218 l0 -200 28 -3 c15 -2 27 2 27 8
0 6 5 8 10 5 6 -3 10 2 11 12 3 69 4 381 1 396 -3 11 -14 17 -31 17 -14 0 -31
-8 -36 -17z"/>
<path d="M1495 1163 c-7 -11 -11 -96 -10 -218 l0 -200 28 -3 c15 -2 27 2 27 8
0 6 5 8 10 5 11 -7 11 -6 13 75 2 43 7 61 26 80 l23 25 22 -29 c120 -163 136
-177 174 -160 9 4 20 6 25 6 17 -4 3 19 -78 126 l-85 113 48 52 c26 28 62 67
79 87 18 19 33 38 33 43 0 4 -15 7 -33 7 -27 0 -41 -9 -72 -42 -62 -71 -154
-168 -158 -168 -2 0 -4 46 -3 103 l0 102 -29 3 c-20 2 -33 -3 -40 -15z"/>
<path d="M405 660 c-3 -6 1 -7 9 -4 18 7 21 14 7 14 -6 0 -13 -4 -16 -10z"/>
<path d="M450 662 c0 -8 68 -7 76 0 2 3 -14 5 -36 6 -22 1 -40 -2 -40 -6z"/>
<path d="M576 658 c3 -4 11 -5 19 -1 21 7 19 12 -4 10 -11 0 -18 -5 -15 -9z"/>
<path d="M620 665 c0 -8 29 -12 39 -5 9 5 4 8 -13 8 -14 0 -26 -2 -26 -3z"/>
<path d="M690 662 c0 -8 68 -7 76 0 2 3 -14 5 -36 6 -22 1 -40 -2 -40 -6z"/>
<path d="M816 658 c3 -4 11 -5 19 -1 21 7 19 12 -4 10 -11 0 -18 -5 -15 -9z"/>
<path d="M860 665 c0 -8 29 -12 39 -5 9 5 4 8 -13 8 -14 0 -26 -2 -26 -3z"/>
<path d="M930 661 c0 -5 9 -7 20 -4 11 3 20 7 20 9 0 2 -9 4 -20 4 -11 0 -20
-4 -20 -9z"/>
<path d="M990 662 c0 -4 9 -8 20 -8 11 0 20 4 20 8 0 4 -9 8 -20 8 -11 0 -20
-4 -20 -8z"/>
<path d="M1070 662 c0 -4 9 -8 20 -8 11 0 20 4 20 8 0 4 -9 8 -20 8 -11 0 -20
-4 -20 -8z"/>
<path d="M1150 662 c0 -4 9 -8 20 -8 11 0 20 4 20 8 0 4 -9 8 -20 8 -11 0 -20
-4 -20 -8z"/>
<path d="M1230 662 c0 -4 9 -8 20 -8 11 0 20 4 20 8 0 4 -9 8 -20 8 -11 0 -20
-4 -20 -8z"/>
<path d="M1310 662 c0 -4 9 -8 20 -8 11 0 20 4 20 8 0 4 -9 8 -20 8 -11 0 -20
-4 -20 -8z"/>
<path d="M1390 662 c0 -4 9 -8 20 -8 11 0 20 4 20 8 0 4 -9 8 -20 8 -11 0 -20
-4 -20 -8z"/>
<path d="M1470 662 c0 -4 9 -8 20 -8 11 0 20 4 20 8 0 4 -9 8 -20 8 -11 0 -20
-4 -20 -8z"/>
<path d="M1550 662 c0 -4 9 -8 20 -8 11 0 20 4 20 8 0 4 -9 8 -20 8 -11 0 -20
-4 -20 -8z"/>
<path d="M1616 658 c3 -4 11 -5 19 -1 21 7 19 12 -4 10 -11 0 -18 -5 -15 -9z"/>
<path d="M1660 665 c0 -8 29 -12 39 -5 9 5 4 8 -13 8 -14 0 -26 -2 -26 -3z"/>
<path d="M1730 661 c0 -5 9 -7 20 -4 11 3 20 7 20 9 0 2 -9 4 -20 4 -11 0 -20
-4 -20 -9z"/>
<path d="M1788 663 c6 -2 18 -2 25 0 6 3 1 5 -13 5 -14 0 -19 -2 -12 -5z"/>
<path d="M390 543 c1 -42 2 -46 14 -30 7 9 18 17 23 17 18 0 34 27 27 44 -4
10 -18 16 -35 16 -28 0 -29 -2 -29 -47z m50 16 c0 -12 -6 -16 -19 -12 -11 3
-17 11 -15 17 7 19 34 15 34 -5z"/>
<path d="M537 583 c-7 -12 -3 -70 6 -79 4 -4 7 0 7 9 0 22 19 22 35 1 10 -14
12 -10 11 27 -1 40 -3 44 -28 47 -14 2 -28 0 -31 -5z m37 -9 c23 -9 20 -24 -4
-24 -11 0 -20 7 -20 15 0 17 2 18 24 9z"/>
<path d="M680 547 c0 -26 4 -47 8 -47 9 0 8 77 -2 87 -3 3 -6 -15 -6 -40z"/>
<path d="M779 585 c-3 -29 -1 -77 5 -82 3 -4 6 9 6 28 l0 34 27 -34 27 -35 7
34 c4 19 3 41 -1 50 -7 11 -9 6 -10 -18 l0 -32 -30 32 c-16 18 -30 29 -31 23z"/>
<path d="M943 579 c11 -6 17 -22 17 -44 0 -19 4 -35 8 -35 5 0 8 17 8 38 -1
24 3 36 12 35 6 -2 12 2 12 7 0 6 -17 10 -37 10 -31 -1 -35 -3 -20 -11z"/>
<path d="M1184 577 c-2 -7 -6 -27 -7 -43 -2 -27 1 -29 34 -30 32 -2 35 0 31
21 -3 16 -9 22 -19 18 -13 -5 -13 -2 -5 14 6 11 8 23 5 27 -11 11 -33 7 -39
-7z m26 -7 c0 -5 -5 -10 -11 -10 -5 0 -7 5 -4 10 3 6 8 10 11 10 2 0 4 -4 4
-10z m0 -51 c0 -5 -4 -9 -10 -9 -5 0 -10 7 -10 16 0 8 5 12 10 9 6 -3 10 -10
10 -16z"/>
<path d="M1410 585 c0 -4 32 -76 37 -84 2 -3 10 4 18 15 13 17 14 17 15 2 0
-10 4 -18 8 -18 11 0 47 78 40 85 -3 3 -11 -8 -18 -25 -9 -22 -15 -27 -21 -19
-4 7 -4 20 1 30 8 13 5 17 -13 17 -20 0 -23 -5 -19 -32 4 -30 4 -30 -12 -11
-8 11 -16 26 -16 33 0 11 -20 18 -20 7z"/>
<path d="M1610 545 c0 -43 1 -45 30 -45 17 0 30 4 30 8 0 5 -8 8 -17 8 -27 -1
-27 18 -1 25 l23 6 -23 4 c-25 4 -31 24 -8 24 8 0 18 4 22 8 4 4 -7 7 -24 7
-31 0 -32 -1 -32 -45z"/>
<path d="M1750 544 c0 -45 0 -45 33 -42 30 3 32 5 30 38 0 19 -1 38 -2 43 -1
4 -14 7 -31 7 -29 0 -30 -2 -30 -46z m43 21 c0 -6 -7 -11 -16 -13 -12 -3 -15
1 -11 13 7 17 25 17 27 0z m8 -40 c-1 -10 -20 -14 -34 -7 -4 2 -5 8 -1 13 7
13 35 8 35 -6z"/>
</g>
</svg>
